# xmcd CD database file
#
# Track frame offsets:
#	150
#	17494
#	34064
#	50105
#	78056
#
# Disc length: 1551 seconds
#
# Revision: 0
# Processed by: cddbd v1.5.1PL2 Copyright (c) Steve Scherf et al.
# Submitted via: CDex 1.51
#
DISCID=30060d05
DTITLE=GORILLAZ - DIRTY HARRY
DYEAR=2005
DGENRE=Rock
TTITLE0=Dirty Harry
TTITLE1=All Alone(Live)
TTITLE2=Hongkongaton
TTITLE3=Dirty Harry (Chopper Remix)
TTITLE4=Dirty Harry(Video)
EXTD=YEAR: 2005/11/22
EXTT0=
EXTT1=
EXTT2=
EXTT3=
EXTT4=
PLAYORDER=
